<svg xmlns="http://www.w3.org/2000/svg" xmlns:xlink="http://www.w3.org/1999/xlink" xmlns:inkscape="http://www.inkscape.org/namespaces/inkscape" version="1.1" width="250.669" height="208.721" viewBox="0 0 250.669 208.721">
<defs>
<clipPath id="clip_1">
<path transform="matrix(1,0,0,-1,0,208.721)" d="M0 208.721H250.669V0H0Z"/>
</clipPath>
<radialGradient id="star-gradient" cx="50%" cy="50%" r="50%" gradientUnits="objectBoundingBox">
<stop offset="0%" stop-color="#e8f4ff"/>
<stop offset="40%" stop-color="#b3d9ff"/>
<stop offset="100%" stop-color="#4dabf7"/>
</radialGradient>
<filter id="star-glow" x="-50%" y="-50%" width="200%" height="200%">
<feGaussianBlur in="SourceGraphic" stdDeviation="6" result="blur"/>
<feMerge>
<feMergeNode in="blur"/>
<feMergeNode in="blur"/>
<feMergeNode in="SourceGraphic"/>
</feMerge>
</filter>
<filter id="frame-shadow" x="-10%" y="-10%" width="130%" height="130%">
<feDropShadow dx="1" dy="1" stdDeviation="1.5" flood-color="#000000" flood-opacity="0.6"/>
</filter>
<filter id="text-shadow" x="-10%" y="-10%" width="130%" height="130%">
<feDropShadow dx="1.5" dy="1.5" stdDeviation="2" flood-color="#000000" flood-opacity="0.8"/>
</filter>
</defs>
<g inkscape:groupmode="layer" inkscape:label="Layer 1">
<path transform="matrix(1,0,0,-1,57.5107,12.152893)" d="M0 0 L155.09,.37 Q168.61,.37 168.61,-13.15 V-122.149 Q168.61,-135.669 155.09,-135.669 H6.59V-129.333H155.09 Q163.137,-129.333 163.137,-122.149 L163.177,-13.15 Q163.177,-5.966 155.09,-5.966 L0,-6.336Z" fill="#888888" filter="url(#frame-shadow)"/>
<g filter="url(#text-shadow)">
<path transform="matrix(1,0,0,-1,26.3163,18.733796)" d="M-11.761 0V6.394H24.17V0H20.336Q12.336,0 12.336,-8V-53.844H0V-8Q0,0 -8,0Z" fill="#d4a056"/>
<g clip-path="url(#clip_1)">
<path transform="matrix(1,0,0,-1,53.6201,37.727495)" d="M0 0 4.608-17.713C5.617-21.602 6.553-25.202 7.201-28.802H7.417C8.209-25.273 9.361-21.529 10.514-17.785L16.202 0H21.53L26.931-17.425C28.227-21.602 29.234-25.273 30.027-28.802H30.243C30.819-25.273 31.755-21.602 32.907-17.497L37.876 0H44.14L32.907-34.851H27.146L21.818-18.217C20.594-14.329 19.586-10.872 18.722-6.769H18.578C17.714-10.944 16.634-14.545 15.409-18.289L9.793-34.851H4.032L-6.48 0Z" fill="#d4a056"/>
<path transform="matrix(1,0,0,-1,0,208.721)" d="M104.092 170.993H110.428V136.142H104.092ZM111.148 180.787C111.22 178.627 109.636 176.899 107.115 176.899 104.884 176.899 103.3 178.627 103.3 180.787 103.3 183.019 104.955 184.747 107.26 184.747 109.636 184.747 111.148 183.019 111.148 180.787" fill="#d4a056"/>
<path transform="matrix(1,0,0,-1,120.9394,47.160097)" d="M0 0C0 3.601-.072 6.553-.288 9.433H5.328L5.688 3.673H5.832C7.561 6.984 11.593 10.226 17.354 10.226 22.178 10.226 29.666 7.345 29.666-4.608V-25.418H23.33V-5.328C23.33 .288 21.241 4.969 15.265 4.969 11.089 4.969 7.849 2.017 6.769-1.512 6.48-2.304 6.336-3.384 6.336-4.464V-25.418H0Z" fill="#d4a056"/>
<path transform="matrix(1,0,0,-1,183.0038,51.768495)" d="M0 0C.072 4.032-1.656 10.297-8.785 10.297-15.193 10.297-18.002 4.393-18.506 0ZM-18.577-4.536C-18.434-13.104-12.961-16.633-6.625-16.633-2.088-16.633 .648-15.841 3.024-14.833L4.104-19.369C1.872-20.378-1.944-21.529-7.488-21.529-18.218-21.529-24.626-14.473-24.626-3.96-24.626 6.553-18.434 14.834-8.28 14.834 3.097 14.834 6.12 4.824 6.12-1.584 6.12-2.88 5.977-3.888 5.904-4.536Z" fill="#d4a056"/>
<path transform="matrix(1,0,0,-1,26.3163,86.108798)" d="M0 0H12.264V-47.231Q12.264,-55.231 20.264,-55.231H30.002V-61.539H13.52Q0,-61.539 0,-48.019Z" fill="#d4a056"/>
<path transform="matrix(1,0,0,-1,0,208.721)" d="M57.116 110.684H63.452V75.83299H57.116ZM64.172 120.477C64.243 118.317 62.66 116.59 60.139 116.59 57.908 116.59 56.324 118.317 56.324 120.477 56.324 122.71 57.979 124.438 60.284 124.438 62.66 124.438 64.172 122.71 64.172 120.477" fill="#d4a056"/>
<path transform="matrix(1,0,0,-1,73.9632,107.46939)" d="M0 0C0 3.601-.072 6.553-.288 9.433H5.328L5.688 3.673H5.832C7.561 6.984 11.593 10.226 17.354 10.226 22.178 10.226 29.666 7.345 29.666-4.608V-25.418H23.33V-5.328C23.33 .288 21.241 4.969 15.265 4.969 11.089 4.969 7.849 2.017 6.769-1.512 6.48-2.304 6.336-3.384 6.336-4.464V-25.418H0Z" fill="#d4a056"/>
<path transform="matrix(1,0,0,-1,136.0286,112.07779)" d="M0 0C.072 4.032-1.656 10.297-8.785 10.297-15.193 10.297-18.002 4.393-18.506 0ZM-18.577-4.536C-18.434-13.104-12.961-16.633-6.625-16.633-2.088-16.633 .648-15.841 3.024-14.833L4.104-19.369C1.872-20.378-1.944-21.529-7.488-21.529-18.218-21.529-24.626-14.473-24.626-3.96-24.626 6.553-18.434 14.834-8.28 14.834 3.097 14.834 6.12 4.824 6.12-1.584 6.12-2.88 5.977-3.888 5.904-4.536Z" fill="#d4a056"/>
<path transform="matrix(1,0,0,-1,186.6195,115.102199)" d="M0 0C-6.913 .145-14.762-1.08-14.762-7.849-14.762-11.953-12.025-13.896-8.785-13.896-4.248-13.896-1.368-11.017-.36-8.064-.145-7.416 0-6.696 0-6.048ZM.936-17.785 .432-13.393H.216C-1.729-16.129-5.473-18.577-10.441-18.577-17.498-18.577-21.098-13.608-21.098-8.568-21.098-.144-13.609 4.465-.145 4.393V5.113C-.145 7.993-.937 13.178-8.064 13.178-11.305 13.178-14.689 12.169-17.138 10.585L-18.578 14.762C-15.697 16.634-11.521 17.858-7.129 17.858 3.528 17.858 6.12 10.585 6.12 3.601V-9.433C6.12-12.457 6.265-15.409 6.696-17.785Z" fill="#d4a056"/>
<path transform="matrix(1,0,0,-1,0,208.721)" d="M202.961 110.684H209.297V75.83299H202.961ZM210.018 120.477C210.089 118.317 208.505 116.59 205.985 116.59 203.753 116.59 202.169 118.317 202.169 120.477 202.169 122.71 203.825 124.438 206.129 124.438 208.505 124.438 210.018 122.71 210.018 120.477" fill="#d4a056"/>
</g>
</g>
<g transform="translate(160.33,148.66) scale(0.75) translate(-162.33,-152.66)"><path transform="matrix(1,0,0,-1,114.7514,168.89389)" d="M0 0C37.598 18.004 40.074 23.045 31.344 63.807 49.348 26.209 54.389 23.733 95.151 32.463 57.553 14.459 55.076 9.418 63.807-31.344 45.803 6.254 40.762 8.73 0 0" fill="url(#star-gradient)" filter="url(#star-glow)"/></g>
</g>
</svg>
